<svg xmlns="http://www.w3.org/2000/svg" xmlns:xlink="http://www.w3.org/1999/xlink" width="1080" zoomAndPan="magnify" viewBox="0 0 810 809.999993" height="1080" preserveAspectRatio="xMidYMid meet" version="1.0"><defs><clipPath id="29193afe32"><path d="M 22.320312 141.179688 L 291 141.179688 L 291 312 L 22.320312 312 Z M 22.320312 141.179688 " clip-rule="nonzero"/></clipPath><clipPath id="5abf838905"><path d="M 17.695312 141.09375 L 788.675781 135.710938 L 793.304688 798.695312 L 22.320312 804.078125 Z M 17.695312 141.09375 " clip-rule="nonzero"/></clipPath><clipPath id="11baeb70dd"><path d="M -68.53125 141.695312 L 877.945312 135.089844 L 883.609375 946.570312 L -62.867188 953.175781 Z M -68.53125 141.695312 " clip-rule="nonzero"/></clipPath><clipPath id="dab7b1f25e"><path d="M 473 454 L 742 454 L 742 627 L 473 627 Z M 473 454 " clip-rule="nonzero"/></clipPath><clipPath id="86c38bf250"><path d="M 17.695312 141.09375 L 788.675781 135.710938 L 793.304688 798.695312 L 22.320312 804.078125 Z M 17.695312 141.09375 " clip-rule="nonzero"/></clipPath><clipPath id="86dea80056"><path d="M -68.53125 141.695312 L 877.945312 135.089844 L 883.609375 946.570312 L -62.867188 953.175781 Z M -68.53125 141.695312 " clip-rule="nonzero"/></clipPath><clipPath id="e98547f9ee"><path d="M 159 141.179688 L 787.320312 141.179688 L 787.320312 629 L 159 629 Z M 159 141.179688 " clip-rule="nonzero"/></clipPath><clipPath id="c6be99b7c8"><path d="M 17.695312 141.09375 L 788.675781 135.710938 L 793.304688 798.695312 L 22.320312 804.078125 Z M 17.695312 141.09375 " clip-rule="nonzero"/></clipPath><clipPath id="5ff8358048"><path d="M -68.53125 141.695312 L 877.945312 135.089844 L 883.609375 946.570312 L -62.867188 953.175781 Z M -68.53125 141.695312 " clip-rule="nonzero"/></clipPath></defs><g clip-path="url(#29193afe32)"><g clip-path="url(#5abf838905)"><g clip-path="url(#11baeb70dd)"><path fill="#465dfe" d="M 101.921875 140.507812 L 290.320312 139.191406 L 210.769531 310.121094 L 22.371094 311.4375 Z M 101.921875 140.507812 " fill-opacity="1" fill-rule="nonzero"/></g></g></g><g clip-path="url(#dab7b1f25e)"><g clip-path="url(#86c38bf250)"><g clip-path="url(#86dea80056)"><path fill="#465dfe" d="M 552.710938 455.691406 L 741.109375 454.375 L 661.554688 625.304688 L 473.160156 626.621094 Z M 552.710938 455.691406 " fill-opacity="1" fill-rule="nonzero"/></g></g></g><g clip-path="url(#e98547f9ee)"><g clip-path="url(#c6be99b7c8)"><g clip-path="url(#5ff8358048)"><path fill="#465dfe" d="M 386.761719 138.519531 L 788.230469 135.714844 L 708.675781 306.644531 L 511.308594 308.023438 L 365.503906 627.371094 L 159.164062 628.8125 Z M 386.761719 138.519531 " fill-opacity="1" fill-rule="nonzero"/></g></g></g></svg>